<svg xmlns="http://www.w3.org/2000/svg" version="1.1" xmlns:xlink="http://www.w3.org/1999/xlink" xmlns:svgjs="http://svgjs.dev/svgjs" width="2000" height="434" viewBox="0 0 2000 434"><g transform="matrix(1,0,0,1,-1.2121212121212466,-0.6508286458570183)"><svg viewBox="0 0 396 86" data-background-color="#ffffff" preserveAspectRatio="xMidYMid meet" height="434" width="2000" xmlns="http://www.w3.org/2000/svg" xmlns:xlink="http://www.w3.org/1999/xlink"><g id="tight-bounds" transform="matrix(1,0,0,1,0.2400000000000091,0.12896604503157505)"><svg viewBox="0 0 395.52 85.74206790993684" height="85.74206790993684" width="395.52"><g><svg viewBox="0 0 673.0821076570965 145.9128534175217" height="85.74206790993684" width="395.52"><g transform="matrix(1,0,0,1,277.5621076570965,2.7867617341415496)"><svg viewBox="0 0 395.52 140.3393299492386" height="140.3393299492386" width="395.52"><g id="textblocktransform"><svg viewBox="0 0 395.52 140.3393299492386" height="140.3393299492386" width="395.52" id="textblock"><g><svg viewBox="0 0 395.52 140.3393299492386" height="140.3393299492386" width="395.52"><g transform="matrix(1,0,0,1,0,0)"><svg width="395.52" viewBox="3.45 -34.6 98.5 34.95" height="140.3393299492386" data-palette-color="#f5ba41"><path d="M14.95-20.3L23.55-20.3Q26.2-20.3 27.28-19.45 28.35-18.6 28.35-16.55L28.35-16.55Q28.35-14.85 27.08-14.13 25.8-13.4 23.1-13.4L23.1-13.4 15-13.4 15-8.1 25.85-8.05Q28.65-8.05 29.88-7.23 31.1-6.4 31.1-4.3L31.1-4.3Q31.1-1.9 29.68-0.95 28.25 0 25.35 0L25.35 0 9.15 0Q6.2 0 4.83-1.58 3.45-3.15 3.45-7.15L3.45-7.15 3.45-28.25Q3.45-34.25 9.15-34.25L9.15-34.25 25.35-34.25Q28.25-34.25 29.68-33.35 31.1-32.45 31.1-30.1L31.1-30.1Q31.1-27.9 29.88-27.03 28.65-26.15 25.85-26.15L25.85-26.15 14.95-26.15 14.95-20.3ZM54.15-25.85L54.15-25.85Q54.15-27.4 52.1-27.4L52.1-27.4Q50-27.4 48.5-25.05 47-22.7 47-17.2L47-17.2Q47-12.1 48.72-9.78 50.45-7.45 52.8-7.45L52.8-7.45Q53.55-7.45 54.17-7.75 54.8-8.05 55.2-8.65 55.6-9.25 55.6-10.1L55.6-10.1Q54.4-10.1 53.52-10.55 52.65-11 52.25-11.68 51.85-12.35 51.85-13.15L51.85-13.15Q51.85-14.95 52.8-15.85 53.75-16.75 56.05-16.75L56.05-16.75 62.1-16.75Q65-16.75 66.6-15.5 68.2-14.25 68.2-11.1L68.2-11.1Q68.2-6.5 63.8-3.08 59.4 0.35 53.35 0.35L53.35 0.35Q47.8 0.35 43.47-1.65 39.15-3.65 36.62-7.63 34.1-11.6 34.1-17.05L34.1-17.05Q34.1-25.15 39-29.85 43.9-34.55 52-34.55L52-34.55Q55.2-34.55 57.75-34.08 60.3-33.6 61.97-32.8 63.65-32 64.77-30.88 65.9-29.75 66.37-28.5 66.85-27.25 66.85-25.9L66.85-25.9Q66.85-24.95 66.55-24.08 66.25-23.2 65.47-22.33 64.7-21.45 63.1-20.9 61.5-20.35 59.25-20.35L59.25-20.35Q55.95-20.35 55.05-21.33 54.15-22.3 54.15-25.85ZM86.75-34.6L86.75-34.6Q92.7-34.6 96.9-32.15 101.1-29.7 101.1-26.95L101.1-26.95Q101.1-26.2 100.77-25.68 100.45-25.15 99.97-24.93 99.5-24.7 98.95-24.7L98.95-24.7Q98.05-24.7 96.25-25.63 94.45-26.55 92.25-27.48 90.05-28.4 88.2-28.4L88.2-28.4Q85.25-28.4 85.25-26L85.25-26Q85.25-25.25 85.72-24.58 86.2-23.9 87.25-23.18 88.3-22.45 89.3-21.9 90.3-21.35 92.05-20.43 93.8-19.5 95-18.8L95-18.8Q98.85-16.6 100.4-14.6 101.95-12.6 101.95-10L101.95-10Q101.95 0.35 88 0.35L88 0.35Q85.25 0.35 82.67-0.2 80.1-0.75 78.17-1.65 76.25-2.55 74.77-3.65 73.3-4.75 72.55-5.9 71.8-7.05 71.8-8.05L71.8-8.05Q71.8-9.15 72.52-9.93 73.25-10.7 74.65-10.7L74.65-10.7Q75.7-10.7 79.7-9.38 83.7-8.05 86.15-8.05L86.15-8.05Q88.4-8.05 88.4-9.6L88.4-9.6Q88.4-10.05 88.22-10.43 88.05-10.8 87.62-11.18 87.2-11.55 86.67-11.88 86.15-12.2 85.22-12.7 84.3-13.2 83.37-13.7 82.45-14.2 80.95-15 79.45-15.8 78.05-16.6L78.05-16.6Q76.2-17.65 74.87-19.2 73.55-20.75 72.95-22.28 72.35-23.8 72.35-25.1L72.35-25.1Q72.35-29.3 76.1-31.95 79.85-34.6 86.75-34.6Z" opacity="1" transform="matrix(1,0,0,1,0,0)" fill="#000000" class="wordmark-text-0" data-fill-palette-color="primary" id="text-0"></path></svg></g></svg></g></svg></g></svg></g><g><svg viewBox="0 0 244.43136 145.9128534175217" height="145.9128534175217" width="244.43136"><g><svg xmlns="http://www.w3.org/2000/svg" xmlns:xlink="http://www.w3.org/1999/xlink" version="1.1" x="0" y="0" viewBox="2.5 21.675000000000004 95.025 56.725" style="enable-background:new 0 0 100 100;" xml:space="preserve" height="145.9128534175217" width="244.43136" class="icon-icon-0" data-fill-palette-color="accent" id="icon-0"><path d="M24.4 76.4c0.6 1.2 1.8 2 3.2 2h0.2c1.4-0.1 2.7-1.1 3.1-2.4L41.4 43l4.7 7.1c0.6 1 1.7 1.6 2.9 1.6h24.2v-7H50.9L43.2 33c-1.1-1.6-3.2-2-4.9-1-0.7 0.4-1.2 1.1-1.4 1.9l-10 31.5L18 46.7c-0.6-1.2-1.8-2-3.2-2H2.5v7h10.2L24.4 76.4z" fill="#000000" data-fill-palette-color="accent"></path><path d="M52.5 29.4l5 5c7.6-7.6 19.8-7.6 27.4 0 7.6 7.6 7.6 19.8 0 27.4-7.6 7.6-19.8 7.6-27.4 0 0 0 0 0 0 0l-5 4.9c10.3 10.3 27 10.3 37.3 0s10.3-27 0-37.3S62.9 19.1 52.5 29.4C52.6 29.4 52.6 29.4 52.5 29.4L52.5 29.4z" fill="#000000" data-fill-palette-color="accent"></path><path d="M65.7 53.5l-5 5c5.8 5.8 15.1 5.8 20.8 0s5.8-15.1 0-20.8-15.1-5.8-20.8 0c0 0 0 0 0 0l5 5c3-3 7.9-3 10.9 0 3 3 3 7.9 0 10.9C73.6 56.5 68.7 56.5 65.7 53.5 65.7 53.5 65.7 53.5 65.7 53.5L65.7 53.5z" fill="#000000" data-fill-palette-color="accent"></path></svg></g></svg></g></svg></g><defs></defs></svg><rect width="395.52" height="85.74206790993684" fill="none" stroke="none" visibility="hidden"></rect></g></svg></g></svg>